o hill-tetrahedron
v 0.000000 0.000000 0.000000
v 1.000000 0.000000 0.000000
v 1.000000 1.414214 0.000000
v 1.000000 0.707107 0.707107
vt 0.500000 1.000000
vt 0.500000 1.000000
vt 0.500000 1.000000
vt 0.500000 1.000000
vn 0.4083 0.5774 -0.7071
vn -0.5774 0.4082 -0.7071
vn -0.0000 -0.7071 -0.7071
vn 0.7071 0.0000 0.7071
vn 0.1851 0.9145 -0.3598
vn 0.2500 -0.2803 0.9268
vn -0.7407 -0.0886 -0.6660
vn 0.7071 -0.0001 0.7071
s off
f 1/1/1 3/2/2 2/3/3
f 1/1/4 2/3/4 4/4/4
f 1/1/5 4/4/6 3/2/7
f 2/3/4 3/2/4 4/4/8
